# xmcd
#
# Track frame offsets:
#	150
#	24452
#	41877
#	57012
#	74192
#	86797
#	107652
#	123165
#	140450
#	154857
#	171165
#	185685
#	204147
#	218967
#	238655
#
# Disc length: 3380 seconds
#
# Revision: 1
# Processed by: cddbd v1.5.2PL0 Copyright (c) Steve Scherf et al.
# Submitted via: audiograbber 1.83.01
#
DISCID=db0d320f
DTITLE=Sound Choice - SC8434
DYEAR=1900
DGENRE=Karaoke 70's 80's Country
TTITLE0=Charley Pride - You're so good when you're bad
TTITLE1=Janie Fricke - Let's stop talkin' about it
TTITLE2=Johnny Lee - Bet your heart on me
TTITLE3=Eddie Rabbitt - Gone too far
TTITLE4=Don Gibson - Country green
TTITLE5=T. Graham Brown - Don't go to strangers
TTITLE6=Donna Fargo - I'll try a little bit harder
TTITLE7=Mickey Gilley - A headache tommorrow (or a heartache tonight}
TTITLE8=Jerry Reed - East bound and down
TTITLE9=Eddy Raven - In a letter to you
TTITLE10=Vern Gosdin - Way down deep
TTITLE11=T. G. Sheppard - Slow Burn
TTITLE12=Dan Seals - Three time loser
TTITLE13=Randy Travis - No Place Like Home
TTITLE14=Ricky Skaggs - Cryin' my heart out over you
EXTD=
EXTT0=
EXTT1=
EXTT2=
EXTT3=
EXTT4=
EXTT5=
EXTT6=
EXTT7=
EXTT8=
EXTT9=
EXTT10=
EXTT11=
EXTT12=
EXTT13=
EXTT14=
PLAYORDER=
